<svg xmlns="http://www.w3.org/2000/svg" viewBox="0 0 1400 230" width="1400" height="230" font-family="'Orbitron','Rajdhani','Segoe UI','Roboto','Helvetica Neue',Arial,sans-serif">
<defs>
  <linearGradient id="bg" x1="0" y1="0" x2="1" y2="1"><stop offset="0" stop-color="#03040C"/><stop offset="0.55" stop-color="#0B1026"/><stop offset="1" stop-color="#12062B"/></linearGradient>
  <linearGradient id="holo" x1="0" y1="0" x2="1" y2="0"><stop offset="0" stop-color="#00E5FF"/><stop offset="0.5" stop-color="#7DF9FF"/><stop offset="1" stop-color="#B388FF"/></linearGradient>
  <linearGradient id="line" x1="0" x2="1"><stop offset="0" stop-color="#00E5FF" stop-opacity="0"/><stop offset="0.5" stop-color="#00E5FF"/><stop offset="1" stop-color="#B388FF" stop-opacity="0"/></linearGradient>
  <linearGradient id="floor" x1="0" y1="0" x2="0" y2="1"><stop offset="0" stop-color="#00E5FF" stop-opacity="0.55"/><stop offset="1" stop-color="#B388FF" stop-opacity="0.05"/></linearGradient>
  <radialGradient id="sun" cx="50%" cy="50%" r="50%"><stop offset="0" stop-color="#00E5FF" stop-opacity="0.55"/><stop offset="0.5" stop-color="#B388FF" stop-opacity="0.18"/><stop offset="1" stop-color="#B388FF" stop-opacity="0"/></radialGradient>
  <filter id="glow" x="-20%" y="-60%" width="140%" height="220%"><feGaussianBlur stdDeviation="6" result="b"/><feMerge><feMergeNode in="b"/><feMergeNode in="SourceGraphic"/></feMerge></filter>
  <filter id="soft" x="-20%" y="-60%" width="140%" height="220%"><feGaussianBlur stdDeviation="2.2" result="b"/><feMerge><feMergeNode in="b"/><feMergeNode in="SourceGraphic"/></feMerge></filter>
  <clipPath id="clip"><rect width="1400" height="230" rx="18"/></clipPath>
  <style>
    .scan{animation:scan 7s linear infinite}
    @keyframes scan{0%{transform:translateY(-40px)}100%{transform:translateY(270px)}}
    .pulse{animation:pulse 3.2s ease-in-out infinite}
    @keyframes pulse{0%,100%{opacity:.35}50%{opacity:1}}
    .spin{transform-box:fill-box;transform-origin:center;animation:spin 40s linear infinite}
    .spinr{transform-box:fill-box;transform-origin:center;animation:spin 26s linear infinite reverse}
    @keyframes spin{to{transform:rotate(360deg)}}
    .dash{stroke-dasharray:6 10;animation:dash 3s linear infinite}
    @keyframes dash{to{stroke-dashoffset:-64}}
  </style>
</defs>
<g clip-path="url(#clip)">
<rect width="1400" height="230" fill="url(#bg)"/>
<circle cx="741" cy="46" r="0.8" fill="#B388FF" opacity="0.50" class="pulse" style="animation-delay:-1.2s"/>
<circle cx="406" cy="53" r="1.8" fill="#B388FF" opacity="0.76"/>
<circle cx="234" cy="190" r="1.3" fill="#B388FF" opacity="0.68"/>
<circle cx="114" cy="74" r="0.8" fill="#00E5FF" opacity="0.62"/>
<circle cx="829" cy="129" r="1.3" fill="#E8F6FF" opacity="0.46" class="pulse" style="animation-delay:-1.3s"/>
<circle cx="370" cy="57" r="1.8" fill="#E8F6FF" opacity="0.26"/>
<circle cx="687" cy="131" r="0.8" fill="#E8F6FF" opacity="0.63"/>
<circle cx="1249" cy="21" r="1" fill="#00E5FF" opacity="0.65"/>
<circle cx="75" cy="61" r="1.8" fill="#00E5FF" opacity="0.50" class="pulse" style="animation-delay:-2.3s"/>
<circle cx="267" cy="70" r="1" fill="#E8F6FF" opacity="0.53"/>
<circle cx="1276" cy="157" r="0.8" fill="#B388FF" opacity="0.63"/>
<circle cx="874" cy="53" r="1.8" fill="#00E5FF" opacity="0.53"/>
<circle cx="1205" cy="117" r="1.8" fill="#B388FF" opacity="0.74" class="pulse" style="animation-delay:-0.6s"/>
<circle cx="50" cy="190" r="1.3" fill="#00E5FF" opacity="0.68"/>
<circle cx="612" cy="230" r="1.8" fill="#B388FF" opacity="0.56"/>
<circle cx="1303" cy="79" r="1.8" fill="#B388FF" opacity="0.64"/>
<circle cx="966" cy="11" r="0.8" fill="#00E5FF" opacity="0.78" class="pulse" style="animation-delay:-0.1s"/>
<circle cx="254" cy="0" r="1" fill="#E8F6FF" opacity="0.60"/>
<circle cx="361" cy="103" r="1" fill="#B388FF" opacity="0.25"/>
<circle cx="684" cy="44" r="0.8" fill="#E8F6FF" opacity="0.33"/>
<circle cx="689" cy="89" r="1" fill="#E8F6FF" opacity="0.33" class="pulse" style="animation-delay:-0.1s"/>
<circle cx="269" cy="20" r="1" fill="#00E5FF" opacity="0.39"/>
<circle cx="891" cy="145" r="1" fill="#E8F6FF" opacity="0.65"/>
<circle cx="556" cy="102" r="1.3" fill="#00E5FF" opacity="0.57"/>
<circle cx="11" cy="168" r="1.3" fill="#E8F6FF" opacity="0.37" class="pulse" style="animation-delay:-0.5s"/>
<circle cx="1064" cy="147" r="0.8" fill="#00E5FF" opacity="0.32"/>
<circle cx="1207" cy="174" r="1.8" fill="#00E5FF" opacity="0.73"/>
<circle cx="44" cy="224" r="1" fill="#E8F6FF" opacity="0.35"/>
<circle cx="538" cy="177" r="1.8" fill="#B388FF" opacity="0.61" class="pulse" style="animation-delay:-3.0s"/>
<circle cx="1364" cy="192" r="1" fill="#00E5FF" opacity="0.61"/>
<circle cx="15" cy="49" r="1.8" fill="#B388FF" opacity="0.31"/>
<circle cx="757" cy="180" r="1" fill="#E8F6FF" opacity="0.26"/>
<circle cx="1309" cy="95" r="1" fill="#B388FF" opacity="0.80" class="pulse" style="animation-delay:-2.7s"/>
<circle cx="1342" cy="143" r="1.3" fill="#00E5FF" opacity="0.37"/>
<circle cx="912" cy="140" r="0.8" fill="#B388FF" opacity="0.26"/>
<circle cx="284" cy="39" r="1" fill="#00E5FF" opacity="0.30"/>
<g stroke="url(#floor)" stroke-width="1" opacity="0.7">
<line x1="336" y1="168" x2="-1960" y2="230"/>
<line x1="362" y1="168" x2="-1770" y2="230"/>
<line x1="388" y1="168" x2="-1580" y2="230"/>
<line x1="414" y1="168" x2="-1390" y2="230"/>
<line x1="440" y1="168" x2="-1200" y2="230"/>
<line x1="466" y1="168" x2="-1010" y2="230"/>
<line x1="492" y1="168" x2="-820" y2="230"/>
<line x1="518" y1="168" x2="-630" y2="230"/>
<line x1="544" y1="168" x2="-440" y2="230"/>
<line x1="570" y1="168" x2="-250" y2="230"/>
<line x1="596" y1="168" x2="-60" y2="230"/>
<line x1="622" y1="168" x2="130" y2="230"/>
<line x1="648" y1="168" x2="320" y2="230"/>
<line x1="674" y1="168" x2="510" y2="230"/>
<line x1="700" y1="168" x2="700" y2="230"/>
<line x1="726" y1="168" x2="890" y2="230"/>
<line x1="752" y1="168" x2="1080" y2="230"/>
<line x1="778" y1="168" x2="1270" y2="230"/>
<line x1="804" y1="168" x2="1460" y2="230"/>
<line x1="830" y1="168" x2="1650" y2="230"/>
<line x1="856" y1="168" x2="1840" y2="230"/>
<line x1="882" y1="168" x2="2030" y2="230"/>
<line x1="908" y1="168" x2="2220" y2="230"/>
<line x1="934" y1="168" x2="2410" y2="230"/>
<line x1="960" y1="168" x2="2600" y2="230"/>
<line x1="986" y1="168" x2="2790" y2="230"/>
<line x1="1012" y1="168" x2="2980" y2="230"/>
<line x1="1038" y1="168" x2="3170" y2="230"/>
<line x1="1064" y1="168" x2="3360" y2="230"/>
<line x1="0" y1="168.0" x2="1400" y2="168.0"/>
<line x1="0" y1="174.9" x2="1400" y2="174.9"/>
<line x1="0" y1="184.4" x2="1400" y2="184.4"/>
<line x1="0" y1="197.6" x2="1400" y2="197.6"/>
<line x1="0" y1="215.7" x2="1400" y2="215.7"/>
</g>
<rect x="0" y="166" width="1400" height="2" fill="url(#line)" filter="url(#soft)"/>
<g transform="translate(1235,108)">
  <circle r="125.39999999999999" fill="url(#sun)"/>
  <g class="spin"><circle r="66" fill="none" stroke="#00E5FF" stroke-width="1.5" stroke-dasharray="3 9" opacity=".9"/><circle r="51.480000000000004" fill="none" stroke="#B388FF" stroke-width="5" stroke-dasharray="59 36" opacity=".75"/></g>
  <g class="spinr"><circle r="36.96" fill="none" stroke="#00E5FF" stroke-width="2" stroke-dasharray="20 12"/><path d="M0,-26.400000000000002 L23.1,13.2 L-23.1,13.2 Z" fill="none" stroke="#FF4DD8" stroke-width="1.5" opacity=".8"/></g>
  <circle r="10.56" fill="#00E5FF" class="pulse" filter="url(#glow)"/>
</g>
<g fill="none" stroke="#00E5FF" stroke-width="2.5" stroke-linecap="square" filter="url(#soft)"><path d="M14,40 L14,14 L40,14" /><path d="M1386,40 L1386,14 L1360,14" /><path d="M14,190 L14,216 L40,216" /><path d="M1386,190 L1386,216 L1360,216" /></g>
<text x="64" y="52" font-family="'JetBrains Mono','SFMono-Regular',Consolas,'Liberation Mono',Menlo,monospace" font-size="14" letter-spacing="3" fill="#00E5FF" opacity=".9">ESWAR MAHALINGAM · CAREER CONTROL TOWER · REPOSITORY <tspan fill="#B388FF">// 2047</tspan></text>
<text x="62" y="124" font-size="54" font-weight="800" letter-spacing="6" fill="url(#holo)" filter="url(#glow)">WAREHOUSE INTELLIGENCE</text>
<rect x="64" y="142" width="360" height="2" fill="url(#holo)"/>
<text x="64" y="196" font-family="'JetBrains Mono','SFMono-Regular',Consolas,'Liberation Mono',Menlo,monospace" font-size="18" fill="#E8F6FF">&gt; CadetX · 12-sprint warehouse, inventory &amp; supplier analytics</text>
<rect class="scan" x="0" y="0" width="1400" height="3" fill="#00E5FF" opacity="0.18"/>
</g>
<rect x="1" y="1" width="1398" height="228" rx="18" fill="none" stroke="url(#holo)" stroke-width="1.5" opacity="0.7"/>
</svg>
